<svg width="130" height="130" xmlns="http://www.w3.org/2000/svg">

 <g>
  <title>background</title>
  <rect fill="none" id="canvas_background" height="402" width="582" y="-1" x="-1"/>
 </g>
 <g>
  <title>Layer 1</title>
  <path id="svg_1" fill-rule="evenodd" d="m65,130c-35.899,0 -65,-29.101 -65,-65s29.101,-65 65,-65s65,29.101 65,65s-29.101,65 -65,65zm9.692,-65l16.138,-16.137a6.846,6.846 0 0 0 0.017,-9.71c-2.696,-2.695 -7.024,-2.668 -9.71,0.017l-16.137,16.138l-16.137,-16.138a6.846,6.846 0 0 0 -9.71,-0.017c-2.695,2.696 -2.668,7.024 0.017,9.71l16.138,16.137l-16.138,16.137a6.846,6.846 0 0 0 -0.017,9.71c2.696,2.695 7.024,2.668 9.71,-0.017l16.137,-16.138l16.137,16.138a6.846,6.846 0 0 0 9.71,0.017c2.695,-2.696 2.668,-7.024 -0.017,-9.71l-16.138,-16.137z"/>
 </g>
</svg>