<svg width="130" height="130" xmlns="http://www.w3.org/2000/svg">

 <g>
  <title>background</title>
  <rect fill="none" id="canvas_background" height="91" width="132" y="-1" x="-1"/>
 </g>
 <g>
  <title>Layer 1</title>
  <path id="svg_1" opacity="0.896" fill-rule="evenodd" d="m130,118.53l-11.364,11.468l-31.138,-31.32c-9.168,7.066 -20.583,11.308 -33.005,11.308c-30.095,0 -54.493,-24.622 -54.493,-54.993c0,-30.37 24.398,-54.993 54.493,-54.993c30.094,0 54.491,24.62 54.491,54.992c0,11.977 -3.835,23.028 -10.277,32.056l31.293,31.482zm-75.507,-105.196c-22.801,0 -41.285,18.65 -41.285,41.658c0,23.009 18.483,41.661 41.285,41.661c22.796,0 41.279,-18.652 41.279,-41.66c0,-23.01 -18.483,-41.66 -41.279,-41.66l0,0.001z"/>
 </g>
</svg>