<?xml version="1.0" encoding="UTF-8"?>
<svg width="280px" height="54px" viewBox="0 0 280 54" version="1.1" xmlns="http://www.w3.org/2000/svg" xmlns:xlink="http://www.w3.org/1999/xlink">
    <!-- Generator: Sketch 55.1 (78136) - https://sketchapp.com -->
    <title>Group</title>
    <desc>Created with Sketch.</desc>
    <defs>
        <linearGradient x1="100%" y1="100%" x2="0%" y2="0%" id="linearGradient-1">
            <stop stop-color="#FF0000" offset="0%"></stop>
            <stop stop-color="#FF4840" offset="100%"></stop>
        </linearGradient>
    </defs>
    <g id="Page-1" stroke="none" stroke-width="1" fill="none" fill-rule="evenodd">
        <g id="播放页_分享状态" transform="translate(-30.000000, -249.000000)">
            <g id="Group" transform="translate(30.000000, 249.000000)">
                <path d="M121.911,14.706 L143.685,14.706 L143.685,11.365 L121.911,11.365 L121.911,14.706 Z M121.911,20.875 L143.685,20.875 L143.685,17.534 L121.911,17.534 L121.911,20.875 Z M119.76,23.703 C118.98,23.703 118.347,23.07 118.347,22.289 L118.347,9.951 C118.347,9.171 118.98,8.538 119.76,8.538 L145.806,8.538 C146.587,8.538 147.22,9.171 147.22,9.951 L147.22,22.289 C147.22,23.07 146.587,23.703 145.806,23.703 L119.76,23.703 Z M147.0333,26.4712 C147.8143,26.4712 148.4473,27.1042 148.4473,27.8852 L148.4473,38.1082 C148.4473,41.3962 145.7823,44.0612 142.4943,44.0612 L137.4063,44.0612 C137.0983,44.0612 136.9203,43.7122 137.1013,43.4632 L139.0193,40.8242 C139.1553,40.6372 139.3723,40.5272 139.6033,40.5272 L142.4953,40.5272 C143.8303,40.5272 144.9133,39.4442 144.9133,38.1092 L144.9133,37.0432 L144.9133,35.8652 L144.9133,29.5102 L143.1943,29.5062 L141.2933,29.5062 L130.9313,43.7632 C130.7953,43.9512 130.5783,44.0612 130.3473,44.0612 L127.2183,44.0612 C126.9273,44.0612 126.7593,43.7322 126.9303,43.4962 L137.0983,29.5062 L131.2903,29.5062 L120.9463,43.7332 C120.7963,43.9392 120.5563,44.0612 120.3013,44.0612 L117.2323,44.0612 C116.9323,44.0612 116.7593,43.7222 116.9353,43.4792 L127.0953,29.5062 L121.4063,29.5062 L117.3573,35.0462 C117.2113,35.2452 116.9793,35.3632 116.7323,35.3632 L113.6273,35.3632 C113.3343,35.3632 113.1653,35.0302 113.3383,34.7932 L116.1403,30.9542 L118.9603,27.0192 C119.2283,26.6732 119.6413,26.4712 120.0783,26.4712 L147.0333,26.4712 Z M193.009,22.0061 C193.222,22.0061 193.395,22.1791 193.395,22.3911 L193.395,23.4841 C193.395,24.5421 192.537,25.4001 191.479,25.4001 L172.03,25.4001 L163.974,40.6661 L187.1,40.6661 L183.08,33.1261 C182.935,32.7981 183.175,32.4291 183.533,32.4291 L186.257,32.4291 C186.453,32.4291 186.63,32.5441 186.71,32.7231 L191.351,41.6621 C191.652,42.3401 191.477,43.1581 190.861,43.6541 C190.552,43.9031 190.155,44.0161 189.759,44.0161 L161.196,44.0161 C160.463,44.0161 159.796,43.5371 159.583,42.7951 C159.459,42.3651 159.534,41.9001 159.744,41.5041 L168.241,25.4001 L158.934,25.4001 C157.784,25.4001 156.852,24.4681 156.852,23.3181 L156.852,22.3941 C156.852,22.1801 157.026,22.0061 157.241,22.0061 L193.009,22.0061 Z M161.9274,13.6247 C160.8074,13.6247 159.8994,12.7167 159.8994,11.5967 L159.8994,10.6887 C159.8994,10.4357 160.1044,10.2307 160.3574,10.2307 L189.9244,10.2307 C190.1584,10.2307 190.3484,10.4207 190.3484,10.6547 L190.3484,11.6547 C190.3484,12.7427 189.4664,13.6247 188.3784,13.6247 L161.9274,13.6247 Z M103.8451,8.9671 C104.8211,8.9671 105.6121,9.7581 105.6121,10.7341 L105.6121,15.2851 L105.6121,38.3191 L105.6051,38.3191 C105.5271,41.5341 102.8931,44.1271 99.6591,44.1271 L95.3861,44.1271 C95.1381,44.1271 94.9941,43.8451 95.1401,43.6441 L97.1461,40.8841 C97.2791,40.7011 97.4931,40.5921 97.7201,40.5921 L99.6601,40.5921 C100.9951,40.5921 102.0781,39.5101 102.0781,38.1741 L102.0781,15.2851 L102.0781,12.5021 L73.6151,12.5021 L73.6151,43.7221 C73.6151,43.9451 73.4341,44.1271 73.2101,44.1271 L70.4861,44.1271 C70.2621,44.1271 70.0801,43.9451 70.0801,43.7221 L70.0801,10.7341 C70.0801,9.7581 70.8721,8.9671 71.8481,8.9671 L103.8451,8.9671 Z M95.6609,36.2421 L92.0809,29.9771 L88.5009,36.2421 C88.4389,36.3501 88.3239,36.4171 88.1999,36.4171 L85.0839,36.4171 C84.8179,36.4171 84.6509,36.1291 84.7829,35.8981 L90.1259,26.5471 L84.7829,17.1961 C84.6509,16.9651 84.8169,16.6771 85.0839,16.6771 L88.1999,16.6771 C88.3239,16.6771 88.4389,16.7441 88.5009,16.8521 L92.0809,23.1171 L95.6609,16.8521 C95.7229,16.7441 95.8379,16.6771 95.9619,16.6771 L99.0779,16.6771 C99.3439,16.6771 99.5109,16.9651 99.3789,17.1961 L94.0359,26.5471 L99.3789,35.8981 C99.5109,36.1291 99.3439,36.4171 99.0779,36.4171 L95.9619,36.4171 C95.8379,36.4171 95.7229,36.3501 95.6609,36.2421 Z M85.5168,26.6902 C85.5128,26.6992 85.5148,26.7082 85.5098,26.7172 L80.0688,36.2422 C80.0068,36.3502 79.8918,36.4172 79.7678,36.4172 L76.6148,36.4172 C76.3488,36.4172 76.1818,36.1292 76.3138,35.8982 L81.6748,26.5132 L76.3438,17.1962 C76.2118,16.9652 76.3778,16.6772 76.6448,16.6772 L79.7968,16.6772 C79.9218,16.6772 80.0368,16.7442 80.0978,16.8522 L85.5258,26.3362 C85.5928,26.4552 85.5798,26.5882 85.5168,26.6902 Z M210.6686,13.6247 L214.4776,20.3087 L221.8336,20.3087 L225.6426,13.6247 L210.6686,13.6247 Z M235.9766,20.3087 C236.2246,20.3087 236.4266,20.5107 236.4266,20.7597 L236.4266,21.7307 C236.4266,22.8197 235.5436,23.7027 234.4536,23.7027 L201.9036,23.7027 C200.7886,23.7027 199.8846,22.7987 199.8846,21.6837 L199.8846,20.7577 C199.8846,20.5097 200.0856,20.3087 200.3326,20.3087 L210.5726,20.3087 L206.7636,13.6247 L204.6416,13.6247 C203.5156,13.6247 202.6026,12.7117 202.6026,11.5867 L202.6026,10.6507 C202.6026,10.4187 202.7916,10.2307 203.0236,10.2307 L216.3146,10.2307 L214.7996,7.5947 C214.6596,7.3507 214.8356,7.0467 215.1166,7.0467 L217.9186,7.0467 C218.2146,7.0467 218.4876,7.2047 218.6356,7.4617 L220.2256,10.2307 L233.3106,10.2307 C233.5306,10.2307 233.7086,10.4087 233.7086,10.6287 L233.7086,11.5867 C233.7086,12.7117 232.7956,13.6247 231.6706,13.6247 L229.5476,13.6247 L225.7386,20.3087 L235.9766,20.3087 Z M207.695,40.923 L228.63,40.923 L228.63,36.836 L207.695,36.836 L207.695,40.923 Z M225.657,29.61 L207.695,29.61 L207.695,33.697 L228.63,33.697 L228.63,32.772 L228.63,29.61 L225.657,29.61 Z M230.468,26.471 C231.405,26.471 232.165,27.231 232.165,28.168 L232.165,32.772 L232.165,42.365 C232.165,43.301 231.405,44.062 230.468,44.062 L205.843,44.062 C204.906,44.062 204.146,43.301 204.146,42.365 L204.146,28.168 C204.146,27.231 204.906,26.471 205.843,26.471 L225.657,26.471 L230.468,26.471 Z M276.4397,26.4712 L263.8297,26.4712 L263.8297,38.1112 C263.8297,41.3992 261.1647,44.0642 257.8767,44.0642 L255.1237,44.0642 C254.7837,44.0642 254.5877,43.6802 254.7857,43.4052 L256.6277,40.8522 C256.7737,40.6502 257.0087,40.5292 257.2577,40.5292 L257.8767,40.5292 C259.2127,40.5292 260.2947,39.4472 260.2947,38.1112 L260.2947,26.4712 L246.6097,26.4712 C246.1247,26.4712 245.6637,26.2632 245.3417,25.9012 C245.0187,25.5382 244.8677,25.0562 244.9247,24.5752 L246.5007,12.3532 C246.5987,11.5252 247.2847,10.8902 248.1167,10.8562 C260.2287,10.3652 273.0787,8.6772 275.2847,8.3782 C275.4697,8.3532 275.6357,8.4832 275.6617,8.6692 L275.8147,9.7562 C275.9647,10.8272 275.2117,11.8142 274.1387,11.9512 C269.9687,12.4852 259.7397,13.7032 249.7007,14.1832 L248.5197,23.0772 L260.2947,23.0772 L260.2947,17.3752 C260.2947,16.2562 261.2017,15.3492 262.3207,15.3492 L263.4267,15.3492 C263.6497,15.3492 263.8297,15.5302 263.8297,15.7532 L263.8297,23.0772 L278.1137,23.0772 C278.3137,23.0772 278.4757,23.2392 278.4757,23.4382 L278.4757,24.4362 C278.4757,25.5602 277.5637,26.4712 276.4397,26.4712 Z M254.3531,29.6097 C254.6321,29.6097 254.7911,29.9087 254.6491,30.1487 C253.2271,32.5497 250.7341,37.1717 248.0751,41.4117 C247.7141,41.9857 247.0711,42.3207 246.3921,42.3207 L244.1411,42.3207 C243.7591,42.3207 243.5361,41.9037 243.7391,41.5807 C246.0951,37.8347 248.4861,33.1377 250.1891,30.5217 C250.5611,29.9497 251.1941,29.6097 251.8761,29.6097 L254.3531,29.6097 Z M279.5111,41.5806 C279.7141,41.9036 279.4901,42.3206 279.1091,42.3206 L276.8571,42.3206 C276.1791,42.3206 275.5361,41.9856 275.1751,41.4116 C272.5151,37.1726 270.0231,32.5506 268.6001,30.1486 C268.4591,29.9086 268.6181,29.6096 268.8971,29.6096 L271.3741,29.6096 C272.0561,29.6096 272.6881,29.9496 273.0601,30.5216 C274.7641,33.1376 277.1541,37.8346 279.5111,41.5806 Z" id="网易云音乐" fill="#FFFFFF"></path>
                <path d="M26.9994962,0 C12.0885596,0 0,12.087552 0,27.0005038 C0,41.9114404 12.0885596,54 26.9994962,54 C41.9114404,54 54,41.9114404 54,27.0005038 C54,12.087552 41.9114404,0 26.9994962,0" id="logo" fill="url(#linearGradient-1)"></path>
                <path d="M40.2689945,37.1762429 C37.5689945,41.5282429 32.3589945,44.3392429 26.9969945,44.3392429 C18.0229945,44.3392429 10.7219945,37.0392429 10.7219945,28.0652429 C10.7219945,27.2632429 10.7839945,26.4512429 10.9059945,25.6522429 C11.0059945,25.0082429 11.1439945,24.3682429 11.3169945,23.7512429 C11.4889945,23.1372429 11.6999945,22.5292429 11.9429945,21.9422429 C12.1829945,21.3622429 12.4609945,20.7882429 12.7699945,20.2372429 C13.0739945,19.6932429 13.4149945,19.1602429 13.7819945,18.6522429 C14.1469945,18.1482429 14.5459945,17.6592429 14.9679945,17.2002429 C15.3849945,16.7432429 15.8369945,16.3042429 16.3099945,15.8952429 C16.7799945,15.4872429 17.2799945,15.1032429 17.7959945,14.7522429 C18.3159945,14.3982429 18.8599945,14.0722429 19.4129945,13.7842429 C19.7109945,13.6282429 20.0239945,13.4772429 20.3409945,13.3362429 C20.5169945,13.2592429 20.6889945,13.1862429 20.8619945,13.1182429 C21.3369945,12.9282429 21.8569945,12.9342429 22.3259945,13.1362429 C22.7969945,13.3382429 23.1599945,13.7112429 23.3499945,14.1872429 C23.5389945,14.6622429 23.5319945,15.1822429 23.3299945,15.6522429 C23.1279945,16.1222429 22.7549945,16.4852429 22.2799945,16.6742429 C22.1499945,16.7262429 22.0199945,16.7812429 21.8909945,16.8382429 C21.6559945,16.9422429 21.4179945,17.0572429 21.1849945,17.1782429 C20.7589945,17.4012429 20.3439945,17.6492429 19.9509945,17.9172429 C19.5589945,18.1832429 19.1769945,18.4772429 18.8159945,18.7902429 C18.4569945,19.1012429 18.1109945,19.4372429 17.7889945,19.7872429 C17.4619945,20.1452429 17.1569945,20.5192429 16.8849945,20.8972429 C16.6019945,21.2882429 16.3419945,21.6952429 16.1119945,22.1072429 C15.8779945,22.5232429 15.6659945,22.9612429 15.4799945,23.4072429 C15.2959945,23.8542429 15.1349945,24.3182429 15.0039945,24.7852429 C14.8709945,25.2602429 14.7659945,25.7472429 14.6909945,26.2332429 C14.5979945,26.8402429 14.5509945,27.4562429 14.5509945,28.0652429 C14.5509945,34.9282429 20.1339945,40.5112429 26.9969945,40.5112429 C31.0649945,40.5112429 34.9979945,38.4092429 37.0159945,35.1572429 C39.3069945,31.4652429 38.7149945,26.5152429 35.6389945,23.6422429 C34.8379945,22.8932429 33.8399945,22.3322429 32.7389945,22.0102429 C32.8159945,22.2802429 32.8939945,22.5522429 32.9719945,22.8232429 C33.2519945,23.8012429 33.5419945,24.8122429 33.7729945,25.7242429 C34.4169945,28.2682429 33.9969945,30.6812429 32.5889945,32.5212429 C31.6979945,33.6852429 30.4079945,34.5472429 28.9569945,34.9482429 C26.9079945,35.5132429 24.8189945,35.1562429 23.0739945,33.9442429 C21.2229945,32.6572429 19.9989945,30.5202429 19.7989945,28.2252429 C19.7069945,27.1662429 19.8039945,26.1152429 20.0879945,25.1012429 C20.8849945,22.2542429 23.1619945,19.7992429 26.0309945,18.6952429 C26.5859945,18.4812429 27.1609945,18.3052429 27.7429945,18.1732429 L27.4829945,17.1902429 C26.6319945,14.0512429 28.0579945,11.2822429 31.0299945,10.3002429 C31.7819945,10.0532429 32.5949945,9.97024285 33.3809945,10.0602429 C33.7349945,10.1002429 34.0909945,10.1772429 34.4369945,10.2882429 C35.1729945,10.5232429 35.8649945,10.9072429 36.4359945,11.3972429 C36.8089945,11.7172429 37.0659945,12.0072429 37.2459945,12.3092429 L37.2699945,12.3532429 C37.2829945,12.3752429 37.2959945,12.3982429 37.3079945,12.4222429 C37.4469945,12.6952429 37.5179945,12.9882429 37.5179945,13.2932429 C37.5179945,14.3492429 36.6589945,15.2092429 35.6029945,15.2092429 C35.1169945,15.2092429 34.6529945,15.0262429 34.2979945,14.6932429 C34.2229945,14.6252429 34.1529945,14.5512429 34.0819945,14.4782429 C33.9669945,14.3592429 33.8579945,14.2462429 33.7329945,14.1512429 C33.5409945,14.0072429 33.3209945,13.8992429 33.0979945,13.8392429 C32.8809945,13.7822429 32.6509945,13.7712429 32.4319945,13.8082429 C31.9349945,13.8902429 31.4989945,14.1972429 31.2669945,14.6282429 C31.2049945,14.7432429 31.1599945,14.8352429 31.1319945,14.9362429 C31.0319945,15.2792429 31.0479945,15.7112429 31.1779945,16.1862429 C31.2869945,16.5932429 31.4189945,17.0942429 31.5339945,17.5302429 L31.6369945,17.9212429 C34.1469945,18.1642429 36.4929945,19.1992429 38.2519945,20.8432429 C42.7109945,25.0082429 43.5589945,31.8762429 40.2689945,37.1762429 Z M29.2905945,23.8791429 C29.0975945,23.2071429 28.9045945,22.5311429 28.7255945,21.8771429 C28.2795945,21.9711429 27.8365945,22.1031429 27.4065945,22.2681429 C25.6435945,22.9471429 24.2515945,24.4281429 23.7745945,26.1341429 C23.6155945,26.7021429 23.5615945,27.2941429 23.6135945,27.8931429 C23.7165945,29.0681429 24.3315945,30.1551429 25.2585945,30.8001429 C25.8205945,31.1901429 26.7435945,31.5861429 27.9375945,31.2571429 C28.5895945,31.0771429 29.1615945,30.6991429 29.5475945,30.1931429 L29.5485945,30.1931429 C30.4215945,29.0521429 30.3095945,27.6441429 30.0615945,26.6641429 C29.8425945,25.8001429 29.5625945,24.8241429 29.2905945,23.8791429 Z" id="logo-copy" fill="#FFFFFF"></path>
            </g>
        </g>
    </g>
</svg>