<svg viewBox="0 0 563 271" version="1.1" xmlns="http://www.w3.org/2000/svg" xmlns:xlink="http://www.w3.org/1999/xlink">
    <!-- Generator: Sketch 51.2 (57519) - http://www.bohemiancoding.com/sketch -->
    <desc>Created with Sketch.</desc>
    <defs></defs>
    <g id="Page-1" stroke="none" stroke-width="1" fill="none" fill-rule="evenodd">
        <g id="电池-浅灰">
            <path d="M70.506843,12 C49.9659623,12 42.0059249,13.5371541 33.7959295,17.9279077 C26.9241882,21.6029552 21.6029552,26.9241882 17.9279077,33.7959295 C13.5371541,42.0059249 12,49.9659623 12,70.506843 L12,200.493157 C12,221.034038 13.5371541,228.994075 17.9279077,237.204071 C21.6029552,244.075812 26.9241882,249.397045 33.7959295,253.072092 C42.0059249,257.462846 49.9659623,259 70.506843,259 L441.493157,259 C462.034038,259 469.994075,257.462846 478.204071,253.072092 C485.075812,249.397045 490.397045,244.075812 494.072092,237.204071 C498.462846,228.994075 500,221.034038 500,200.493157 L500,70.506843 C500,49.9659623 498.462846,42.0059249 494.072092,33.7959295 C490.397045,26.9241882 485.075812,21.6029552 478.204071,17.9279077 C469.994075,13.5371541 462.034038,12 441.493157,12 L70.506843,12 Z" id="Rectangle-3" stroke="#9B9B9B" stroke-width="24"></path>
            <rect id="Rectangle-5" fill="#9B9B9B" x="48" y="48" width="235" height="175" rx="27"></rect>
            <path d="M523.764236,91.9222717 C531.274663,90.6467654 537.487458,91.4344377 542.40262,94.2852884 C549.775364,98.5615644 551.3614,101.196395 556.552073,109.334584 C561.742746,117.472773 562.324843,128.047093 562.441741,134.744163 C562.558638,141.441233 560.797426,148.960769 557.380551,156.798057 C553.963676,164.635345 550.394987,168.143379 543.790018,173.769274 C539.386706,177.519871 533.439486,179.344774 525.94836,179.243982" id="Triangle" fill="#9D9A9A" transform="translate(543.105720, 135.289400) rotate(1.000000) translate(-543.105720, -135.289400) "></path>
        </g>
    </g>
</svg>